{"title":"And.Soon.the.Darkness.2010.BRRIP.720P.H264-ZEKTORM","uid":6055267,"size":2202601259,"categoryP":"video","categoryS":"hd___movies","magnet":"?xt=urn:btih:73ad136a87ccb33cb177a785f6b7ae29378a8ae6&amp;dn=And.Soon.the.Darkness.2010.BRRIP.720P.H264-ZEKTORM&amp;tr=udp%3A%2F%2Ftracker.openbittorrent.com%3A80&amp;tr=udp%3A%2F%2Fopen.demonii.com%3A1337&amp;tr=udp%3A%2F%2Ftracker.coppersurfer.tk%3A6969&amp;tr=udp%3A%2F%2Fexodus.desync.com%3A6969","seeders":0,"leechers":0,"uploader":"blowley","files":4,"time":1292883849,"description":"Title                            : And Soon the Darkness\nYear                             : 2010\nGenre                            : Horror | Thriller\niMDB URL                         : http://www.imdb.com/title/tt1391034/\n\nComplete name                    : And.Soon.the.Darkness.2010.BRRIP.720P.H264-ZEKTORM.mp4\nFormat                           : MPEG-4\nFormat profile                   : Base Media\nCodec ID                         : isom\nFile size                        : 2.05 GiB\nDuration                         : 1h 31mn\nOverall bit rate                 : 3217 Kbps\nSubtitles                        : English (Format: srt)\n\nVideo\nID                               : 1\nFormat                           : AVC\nFormat/Info                      : Advanced Video Codec\nFormat profile                   : &lt;a class=&quot;__cf_email__&quot; href=&quot;/cdn-cgi/l/email-protection&quot; data-cfemail=&quot;276f4e404f676b130917&quot;&gt;[email&amp;#160;protected]&lt;/a&gt;&lt;script cf-hash='f9e31' type=&quot;text/javascript&quot;&gt;\n/* &lt;![CDATA[ */!function(){try{var t=&quot;currentScript&quot;in document?document.currentScript:function(){for(var t=document.getElementsByTagName(&quot;script&quot;),e=t.length;e--;)if(t[e].getAttribute(&quot;cf-hash&quot;))return t[e]}();if(t&amp;&amp;t.previousSibling){var e,r,n,i,c=t.previousSibling,a=c.getAttribute(&quot;data-cfemail&quot;);if(a){for(e=&quot;&quot;,r=parseInt(a.substr(0,2),16),n=2;a.length-n;n+=2)i=parseInt(a.substr(n,2),16)^r,e+=String.fromCharCode(i);e=document.createTextNode(e),c.parentNode.replaceChild(e,c)}}}catch(u){}}();/* ]]&gt; */&lt;/script&gt;\nFormat settings, CABAC           : Yes\nFormat settings, ReFrames        : 5 frames\nCodec ID                         : avc1\nCodec ID/Info                    : Advanced Video Coding\nDuration                         : 1h 31mn\nBit rate mode                    : Variable\nBit rate                         : 2769 Kbps\nWidth                            : 1280 pixels\nHeight                           : 528 pixels\nDisplay aspect ratio             : 2.424\nFrame rate mode                  : Constant\nFrame rate                       : 23.976 fps\nResolution                       : 24 bits\nColorimetry                      : 4:2:0\nScan type                        : Progressive\nBits/(Pixel*Frame)               : 0.171\nStream size                      : 1.77 GiB (86%)\nTitle                            : Video\nWriting library                  : x264\n\nAudio\nID                               : 2\nFormat                           : AAC\nFormat/Info                      : Advanced Audio Codec\nFormat version                   : Version 4\nFormat profile                   : LC\nFormat settings, SBR             : No\nCodec ID                         : 40\nDuration                         : 1h 31mn\nBit rate mode                    : Variable\nBit rate                         : 445 Kbps\nMaximum bit rate                 : 507 Kbps\nChannel(s)                       : 6 channels\nChannel positions                : Front: L C R, Rear: L R, LFE\nSampling rate                    : 48.0 KHz\nResolution                       : 16 bits\nStream size                      : 290 MiB (14%)\nLanguage                         : English\n\n\nScreenshots:\n &lt;a href=&quot;\nhttp://img258.imageshack.us/img258/2946/snapasd1.png&quot; rel=&quot;nofollow&quot; target=&quot;_NEW&quot;&gt;\nhttp://img258.imageshack.us/img258/2946/snapasd1.png&lt;/a&gt;\n &lt;a href=&quot;\nhttp://img24.imageshack.us/img24/4408/snapasd2.png&quot; rel=&quot;nofollow&quot; target=&quot;_NEW&quot;&gt;\nhttp://img24.imageshack.us/img24/4408/snapasd2.png&lt;/a&gt;\n &lt;a href=&quot;\nhttp://img530.imageshack.us/img530/2127/snapasd3.png&quot; rel=&quot;nofollow&quot; target=&quot;_NEW&quot;&gt;\nhttp://img530.imageshack.us/img530/2127/snapasd3.png&lt;/a&gt;\n &lt;a href=&quot;\nhttp://img339.imageshack.us/img339/865/snapasd4.png&quot; rel=&quot;nofollow&quot; target=&quot;_NEW&quot;&gt;\nhttp://img339.imageshack.us/img339/865/snapasd4.png&lt;/a&gt;\n","torrent":{"xt":"urn:btih:73ad136a87ccb33cb177a785f6b7ae29378a8ae6","amp;dn":"And.Soon.the.Darkness.2010.BRRIP.720P.H264-ZEKTORM","amp;tr":["udp%3A%2F%2Ftracker.openbittorrent.com%3A80","udp%3A%2F%2Fopen.demonii.com%3A1337","udp%3A%2F%2Ftracker.coppersurfer.tk%3A6969","udp%3A%2F%2Fexodus.desync.com%3A6969"],"infoHash":"73ad136a87ccb33cb177a785f6b7ae29378a8ae6","infoHashBuffer":{"type":"Buffer","data":[115,173,19,106,135,204,179,60,177,119,167,133,246,183,174,41,55,138,138,230]},"announce":[],"urlList":[]}}